<svg xmlns="http://www.w3.org/2000/svg" viewBox="8832.779 86.307 188.438 35.408"><defs><style>.a{fill:#2dbdb6;}.b{fill:#ed1164;}</style></defs><g transform="translate(8644 69)"><g transform="translate(188.78 17.307)"><g transform="translate(129.325 29.86)"><rect class="a" width="58.61" height="5.548"/></g><g transform="translate(0 0)"><path class="b" d="M52.7,29.106V5.4h5.649c5.75,0,12,.706,12,8.171,0,4.741-3.632,7.969-9.18,7.969a12.36,12.36,0,0,1-1.816-.1v7.768H52.7Zm6.658-12.912h1.11c1.715,0,3.228-.706,3.228-2.825,0-1.715-1.009-2.623-3.43-2.623h-.908Z" transform="translate(-52.7 -4.795)"/><path class="b" d="M79.758,20.129v8.877H73.1V5.4s3.228-.1,6.759-.1c5.952,0,10.693,1.11,10.693,6.658a6.612,6.612,0,0,1-4.338,6.456,4.467,4.467,0,0,1,1.715,2.018c1.311,2.724,3.833,8.675,3.833,8.675H84.6l-3.833-8.978Zm.908-9.583h-.908v4.943s.1.1.706.1c1.513,0,3.329-.3,3.329-2.522C83.894,11.353,82.885,10.546,80.666,10.546Z" transform="translate(-52.521 -4.796)"/><path class="b" d="M93.8,5.4h14.224v5.548h-7.465v3.531h6.759v5.346h-6.759v3.833h7.465v5.548H93.8Z" transform="translate(-52.339 -4.795)"/><path class="b" d="M122.3,13.173c0-1.917-.908-2.825-2.219-2.825s-2.219.807-2.32,2.522c-.1,2.32-.1,5.851,0,8.474.1,1.816.908,2.724,2.219,2.724a2.51,2.51,0,0,0,2.421-2.825l6.154.2c0,4.842-3.329,8.171-8.776,8.171-5.044,0-8.675-2.925-8.776-7.969q-.151-5.447,0-9.079c.2-5.145,4.439-7.768,8.978-7.768,4.64,0,8.575,2.623,8.373,8.171Z" transform="translate(-52.189 -4.8)"/><path class="b" d="M137.958,29.106H131.3V5.4h6.658Z" transform="translate(-52.011 -4.795)"/><path class="b" d="M152.594,22.654c0-1.009-.908-1.816-4.539-3.026-3.43-1.11-6.254-3.127-6.254-7.263,0-5.044,4.136-7.465,8.675-7.465s8.575,2.421,8.373,8.171l-6.153.2c0-2.018-.807-2.825-2.219-2.825-1.009,0-1.917.5-1.917,1.513,0,1.211.706,1.816,4.539,3.127,3.632,1.311,6.254,2.925,6.254,7.465,0,4.439-3.732,7.162-8.675,7.162-4.741,0-9.18-2.522-8.877-8.171l6.154-.2c0,2.118,1.211,2.825,2.724,2.825C151.787,24.067,152.594,23.663,152.594,22.654Z" transform="translate(-51.919 -4.799)"/><path class="b" d="M173.113,24.869h-5.649l-.807,4.136H160.1l5.346-22.294V5.4h9.886l5.447,23.706h-6.86Zm-4.64-5.346H172.1l-1.311-7.061-.5-3.026-.5,3.026Z" transform="translate(-51.758 -4.795)"/></g><g transform="translate(130.52 0.101)"><path class="a" d="M192.894,22.654c0-1.009-.908-1.816-4.54-3.026-3.43-1.11-6.254-3.127-6.254-7.263,0-5.044,4.136-7.465,8.676-7.465s8.574,2.421,8.373,8.171l-6.154.2c0-2.018-.807-2.825-2.219-2.825-1.009,0-1.917.5-1.917,1.513,0,1.211.706,1.816,4.539,3.127,3.632,1.311,6.254,2.925,6.254,7.465,0,4.439-3.732,7.162-8.675,7.162-4.741,0-9.18-2.522-8.877-8.171l6.154-.2c0,2.118,1.21,2.825,2.724,2.825C192.188,24.067,192.894,23.663,192.894,22.654Z" transform="translate(-182.085 -4.9)"/><path class="a" d="M202.8,5.4h14.224v5.548h-7.465v3.531h6.759v5.346h-6.759v3.833h7.465v5.548H202.8Z" transform="translate(-181.904 -4.896)"/><path class="a" d="M227.658,20.129v8.877H221V5.4s3.228-.1,6.759-.1c5.952,0,10.693,1.11,10.693,6.658a6.612,6.612,0,0,1-4.338,6.456,4.467,4.467,0,0,1,1.715,2.018c1.311,2.724,3.833,8.675,3.833,8.675H232.5l-3.733-8.877h-1.11Zm.908-9.583h-.908v4.943s.1.1.706.1c1.513,0,3.329-.3,3.329-2.522C231.693,11.353,230.785,10.546,228.566,10.546Z" transform="translate(-181.744 -4.896)"/></g></g></g></svg>